<?xml version="1.0" standalone="no"?>
<!DOCTYPE svg PUBLIC "-//W3C//DTD SVG 20010904//EN"
 "http://www.w3.org/TR/2001/REC-SVG-20010904/DTD/svg10.dtd">
<svg version="1.0" xmlns="http://www.w3.org/2000/svg"
 width="500.000000pt" height="500.000000pt" viewBox="0 0 500.000000 500.000000"
 preserveAspectRatio="xMidYMid meet">

<g transform="translate(0.000000,500.000000) scale(0.100000,-0.100000)"
fill="#000000" stroke="none">
<path d="M2656 3783 c45 -87 5 -154 -232 -388 -200 -198 -234 -244 -234 -312
1 -62 37 -106 114 -138 48 -20 53 -19 28 8 -11 12 -25 35 -31 50 -35 90 5 149
267 401 56 54 117 119 134 143 61 89 57 165 -12 227 -48 43 -53 45 -34 9z"/>
<path d="M2300 2860 c-170 -17 -331 -59 -352 -93 -17 -28 27 -249 73 -359 16
-38 49 -103 75 -144 26 -41 45 -76 43 -78 -2 -1 -90 -12 -195 -24 -105 -12
-213 -29 -240 -37 -68 -20 -116 -52 -112 -73 7 -37 148 -80 368 -113 112 -16
696 -23 910 -10 206 12 324 30 440 67 81 25 106 43 96 69 -15 41 -189 86 -409
107 -78 8 -126 16 -124 23 2 6 33 9 81 6 70 -3 83 0 140 28 91 44 150 100 188
179 44 90 46 157 5 200 -33 35 -91 52 -172 52 l-56 0 6 53 c8 62 5 65 -76 95
-121 45 -480 71 -689 52z m547 -94 c95 -19 133 -40 133 -71 0 -40 -28 -159
-54 -227 -61 -164 -169 -278 -305 -323 -79 -26 -198 -18 -271 19 -157 79 -261
233 -305 454 -9 45 -14 89 -11 97 8 21 127 53 236 64 130 13 487 5 577 -13z
m361 -212 c84 -58 -74 -250 -223 -271 -54 -7 -55 -3 -16 75 15 31 38 88 51
125 15 48 29 71 44 77 36 15 120 11 144 -6z m-1014 -413 l27 -29 -58 -6 c-68
-8 -123 -24 -123 -36 0 -8 20 -13 150 -31 124 -18 540 -15 664 4 104 17 119
23 96 37 -14 9 -30 12 -117 26 -39 6 -41 13 -10 42 23 22 27 22 123 11 193
-21 304 -53 304 -87 0 -85 -692 -139 -1160 -91 -122 12 -289 46 -317 65 -59
38 -9 64 187 97 191 33 200 33 234 -2z"/>
<path d="M2003 1895 c187 -52 745 -52 982 0 60 13 60 13 -40 6 -132 -8 -707
-8 -865 1 -115 6 -121 6 -77 -7z"/>
<path d="M2128 1683 c8 -3 12 -36 12 -113 0 -77 -4 -110 -12 -113 -7 -3 5 -6
27 -6 26 0 35 2 27 8 -8 4 -13 21 -12 37 1 16 2 66 1 112 l-1 82 -27 -1 c-16
0 -22 -3 -15 -6z"/>
<path d="M1951 1651 c-36 -36 -25 -64 40 -96 57 -29 74 -54 56 -79 -19 -26
-78 -18 -93 12 -18 37 -24 37 -24 1 l0 -34 55 -3 c60 -3 90 8 100 38 10 30
-11 58 -64 85 -53 26 -63 40 -49 68 14 27 63 22 87 -9 l21 -27 0 29 c0 28 -2
29 -54 32 -45 3 -59 -1 -75 -17z"/>
<path d="M2383 1663 c15 -4 17 -18 17 -103 0 -85 -2 -99 -17 -103 -10 -3 0 -5
22 -5 22 0 32 2 23 5 -15 4 -18 16 -17 81 l1 77 38 -80 c21 -44 42 -80 46 -80
4 0 25 38 45 85 l38 85 1 -82 c0 -56 -4 -83 -12 -86 -7 -3 7 -5 32 -5 25 0 37
2 28 5 -16 4 -18 18 -18 103 0 85 2 99 18 103 9 3 3 5 -14 6 -29 1 -32 -3 -64
-76 -18 -43 -37 -82 -41 -87 -5 -5 -26 30 -48 77 -37 80 -42 87 -68 86 -17 -1
-21 -3 -10 -6z"/>
<path d="M3008 1623 c-2 -10 -1 -52 2 -93 5 -69 7 -75 28 -78 25 -4 52 13 52
32 0 6 -7 3 -15 -8 -8 -11 -20 -16 -30 -12 -14 5 -16 19 -15 74 3 89 2 102 -9
102 -5 0 -10 -8 -13 -17z"/>
<path d="M2698 1599 c-10 -5 -18 -18 -18 -27 1 -14 4 -13 19 6 23 27 47 28 61
3 16 -32 12 -38 -29 -45 -45 -7 -64 -26 -59 -58 3 -26 44 -36 77 -19 13 7 22
8 26 1 8 -13 45 -13 45 0 0 5 -7 7 -15 4 -12 -5 -15 5 -15 60 0 54 -3 67 -19
76 -25 13 -51 12 -73 -1z m72 -83 c0 -8 -9 -24 -19 -37 -16 -19 -23 -22 -37
-13 -25 15 -27 29 -9 48 20 20 65 21 65 2z"/>
<path d="M2920 1595 c-9 -11 -16 -13 -24 -5 -20 20 -26 9 -26 -55 0 -50 -4
-66 -17 -74 -14 -8 -6 -10 32 -10 28 1 42 3 33 6 -14 4 -18 15 -18 58 0 60 19
87 45 65 18 -15 30 -7 22 15 -8 19 -31 19 -47 0z"/>
<path d="M2211 1566 c-18 -19 -29 -35 -24 -37 5 -2 19 -21 32 -41 17 -30 29
-38 49 -37 15 1 20 3 12 6 -8 2 -27 24 -41 47 l-27 44 26 26 c15 14 22 26 16
26 -5 0 -25 -15 -43 -34z"/>
<path d="M2068 1219 c-28 -16 -21 -38 17 -60 34 -20 47 -49 23 -49 -6 0 -8 -3
-5 -6 9 -9 37 15 37 31 0 7 -16 22 -35 34 -41 24 -44 38 -12 51 12 5 15 9 7 9
-8 0 -23 -4 -32 -10z"/>
<path d="M2170 1220 c0 -5 5 -10 10 -10 6 0 10 5 10 10 0 6 -4 10 -10 10 -5 0
-10 -4 -10 -10z"/>
<path d="M2567 1203 c-10 -9 -9 -23 2 -23 5 0 11 7 15 15 5 15 -5 20 -17 8z"/>
<path d="M2617 1190 c3 -11 -1 -28 -8 -38 -8 -11 -5 -9 9 4 15 13 20 26 16 37
-9 24 -23 21 -17 -3z"/>
<path d="M2668 1185 c-14 -30 -1 -76 22 -83 12 -4 13 -2 3 9 -16 17 -17 71 -1
87 9 9 9 12 0 12 -7 0 -18 -11 -24 -25z"/>
<path d="M2725 1155 c0 -42 3 -51 13 -43 6 6 12 25 12 43 0 18 -6 37 -12 43
-10 8 -13 -1 -13 -43z"/>
<path d="M2777 1203 c-10 -9 -9 -23 2 -23 5 0 11 7 15 15 5 15 -5 20 -17 8z"/>
<path d="M2820 1203 c18 -9 10 -32 -20 -60 -16 -14 -30 -30 -30 -35 0 -4 18
-8 40 -8 31 0 40 4 40 17 0 13 -3 14 -12 5 -7 -7 -23 -12 -37 -12 -26 1 -26 1
8 28 33 28 40 63 13 68 -7 1 -8 0 -2 -3z"/>
<path d="M2909 1188 c-6 -13 -21 -33 -32 -45 -11 -13 -17 -23 -13 -23 7 0 55
52 69 76 5 8 4 14 -2 14 -6 0 -16 -10 -22 -22z"/>
<path d="M2165 1145 c0 -29 4 -45 13 -45 8 0 12 16 12 45 0 29 -4 45 -12 45
-9 0 -13 -16 -13 -45z"/>
<path d="M2225 1144 c0 -55 22 -60 27 -7 2 28 8 39 22 41 16 3 18 -1 14 -37
-2 -29 0 -41 9 -41 17 0 17 64 1 77 -7 6 -26 11 -43 11 -29 0 -30 -1 -30 -44z"/>
<path d="M2352 1178 c-18 -18 -15 -65 4 -72 9 -4 19 -4 22 -1 3 3 1 5 -5 5
-15 0 -25 29 -18 51 7 20 40 26 48 9 3 -6 4 -5 3 2 -3 18 -38 22 -54 6z"/>
<path d="M2442 1178 c-11 -11 -18 -68 -8 -68 2 0 13 -3 23 -7 17 -6 17 -6 1
10 -9 9 -15 25 -13 34 2 10 4 21 4 26 2 15 41 7 41 -9 0 -8 5 -12 10 -9 8 5 7
11 -1 21 -14 17 -41 18 -57 2z"/>
<path d="M2927 1153 c-11 -10 -8 -63 3 -63 6 0 10 16 10 35 0 36 -2 40 -13 28z"/>
<path d="M2050 1122 c0 -14 6 -22 16 -22 14 0 15 3 3 18 -7 9 -15 19 -16 21
-2 2 -3 -5 -3 -17z"/>
<path d="M2572 1128 c-21 -21 -13 -28 28 -28 31 0 40 4 40 17 0 13 -3 14 -12
5 -18 -18 -51 -15 -44 3 7 18 4 19 -12 3z"/>
</g>
</svg>
