<?xml version="1.0" standalone="no"?>
<!DOCTYPE svg PUBLIC "-//W3C//DTD SVG 20010904//EN"
 "http://www.w3.org/TR/2001/REC-SVG-20010904/DTD/svg10.dtd">
<svg version="1.0" xmlns="http://www.w3.org/2000/svg"
 width="500.000000pt" height="500.000000pt" viewBox="0 0 500.000000 500.000000"
 preserveAspectRatio="xMidYMid meet">

<g transform="translate(0.000000,500.000000) scale(0.100000,-0.100000)"
fill="#000000" stroke="none">
<path d="M1166 3078 c-3 -13 -12 -81 -21 -153 -8 -71 -18 -147 -21 -167 l-6
-38 40 0 c46 0 43 -9 63 177 7 62 15 110 18 107 3 -3 15 -38 27 -77 30 -102
46 -101 103 3 25 44 45 79 46 77 1 -1 -4 -51 -11 -112 -7 -60 -13 -125 -14
-142 0 -31 2 -33 35 -33 28 0 35 4 39 23 8 41 36 292 36 325 0 30 -2 32 -37
32 -38 0 -38 0 -93 -105 -30 -57 -58 -101 -61 -97 -3 4 -19 51 -34 105 l-28
97 -38 0 c-32 0 -39 -4 -43 -22z"/>
<path d="M1641 3078 c-45 -115 -103 -263 -120 -305 l-21 -53 40 0 39 0 28 75
28 75 71 0 71 0 7 -37 c3 -21 11 -55 16 -75 10 -35 14 -38 49 -38 l39 0 -35
138 c-18 75 -40 161 -49 190 l-15 52 -70 0 c-63 0 -70 -2 -78 -22z m107 -95
l19 -83 -58 0 c-33 0 -59 3 -59 7 0 22 64 173 71 166 4 -4 16 -45 27 -90z"/>
<path d="M1986 3088 c-5 -14 -46 -337 -46 -356 0 -7 14 -12 35 -12 41 0 37
-12 62 200 l18 155 74 3 73 3 -7 -68 c-4 -37 -9 -71 -12 -75 -2 -5 -31 -8 -64
-8 -47 0 -59 -3 -59 -16 0 -8 28 -55 62 -105 62 -89 62 -89 106 -89 50 0 52
-6 -30 102 l-58 77 57 3 58 3 6 50 c4 28 10 71 13 98 l6 47 -146 0 c-107 0
-146 -3 -148 -12z"/>
<path d="M2330 3090 c0 -5 24 -10 53 -10 30 0 56 -2 59 -5 4 -4 -17 -187 -37
-317 l-5 -38 38 0 39 0 17 153 c25 227 17 207 87 207 33 0 59 4 59 10 0 6 -58
10 -155 10 -97 0 -155 -4 -155 -10z"/>
<path d="M2846 3088 c-5 -14 -46 -337 -46 -356 0 -9 40 -12 155 -12 85 0 155
3 155 8 0 4 9 88 20 186 11 99 20 181 20 183 0 1 -68 3 -150 3 -112 0 -152 -3
-154 -12z m226 -15 c2 -5 -5 -81 -15 -170 l-20 -163 -79 0 c-77 0 -78 0 -78
25 0 32 30 285 35 303 5 13 151 18 157 5z"/>
<path d="M3236 3068 c-3 -18 -13 -87 -21 -153 -8 -66 -18 -137 -21 -157 l-6
-38 39 0 40 0 17 163 c9 89 19 170 22 180 5 15 18 17 99 17 52 0 97 4 100 10
4 6 -41 10 -129 10 l-135 0 -5 -32z"/>
<path d="M3763 3076 c-22 -20 -26 -27 -15 -37 6 -7 12 -23 12 -35 0 -41 32
-84 63 -84 33 0 32 -8 -10 -96 -28 -60 -117 -139 -142 -128 -9 4 -29 8 -46 8
-23 1 -32 -5 -43 -26 -21 -44 -41 -118 -31 -118 5 0 11 11 15 25 7 28 24 24
24 -5 0 -21 36 -50 62 -50 25 0 22 13 -4 25 -13 6 -24 20 -26 31 -3 18 4 22
39 28 23 4 44 5 46 2 8 -8 -22 -91 -40 -109 -14 -14 -36 -19 -87 -21 -59 -1
-76 -6 -112 -32 -136 -95 -122 -301 25 -370 84 -39 169 -28 234 29 92 81 98
224 11 314 -25 26 -29 36 -22 57 9 25 13 22 114 -91 85 -94 104 -121 102 -143
-3 -31 31 -80 56 -80 14 -1 13 -4 -5 -19 -32 -27 -29 -39 14 -47 26 -5 39 -3
47 8 6 8 22 20 35 27 21 12 26 10 55 -18 69 -66 158 -79 247 -33 144 73 155
272 21 367 -38 26 -52 30 -110 30 -37 0 -79 -4 -94 -8 -25 -8 -29 -5 -57 39
l-29 48 19 27 c13 18 25 26 38 22 24 -6 49 33 32 50 -6 6 -11 33 -11 59 0 27
-6 64 -14 82 -34 82 -156 176 -228 176 -37 0 -38 1 -38 38 0 76 -86 110 -147
58z m198 -279 c53 -36 49 -50 -25 -81 -78 -34 -116 -66 -116 -101 0 -22 -4
-25 -35 -25 -32 0 -35 3 -35 29 0 16 -5 31 -11 33 -6 2 7 16 29 30 22 15 62
52 88 82 27 31 54 56 60 56 6 0 26 -10 45 -23z m-311 -107 c13 -8 12 -10 -3
-10 -9 0 -23 -11 -29 -25 -6 -14 -15 -25 -20 -25 -14 0 -9 38 8 54 18 18 24
19 44 6z m350 -90 c0 -5 -16 -10 -36 -10 -21 0 -33 4 -29 10 3 6 19 10 36 10
16 0 29 -4 29 -10z m-91 -105 c67 -70 68 -77 19 -132 l-20 -21 -89 99 c-49 55
-89 104 -89 109 0 6 26 10 58 10 l59 0 62 -65z m85 50 c-5 -12 -10 -13 -20 -4
-19 15 -18 19 6 19 13 0 18 -5 14 -15z m134 -50 c12 -19 22 -38 22 -42 -1 -10
-60 -76 -64 -71 -2 1 -9 24 -16 50 -11 42 -10 51 4 73 21 33 27 32 54 -10z
m-466 -37 c16 -8 16 -13 -8 -66 -14 -31 -28 -63 -31 -70 -3 -8 -17 -18 -30
-23 -25 -9 -29 -39 -7 -46 11 -4 76 99 102 161 13 28 13 28 33 10 73 -66 83
-191 22 -272 -47 -63 -152 -91 -230 -61 -67 25 -122 109 -123 187 0 133 158
239 272 180z m674 7 c142 -42 190 -216 90 -324 -64 -69 -168 -83 -248 -32 -26
16 -51 39 -57 49 -10 19 -7 21 63 27 85 8 88 10 110 52 21 42 20 60 -3 66 -11
3 -40 36 -64 73 -50 79 -47 85 54 103 3 1 28 -6 55 -14z m-131 -86 c58 -82 59
-80 -31 -77 l-79 3 2 28 c2 29 46 97 63 97 4 0 25 -23 45 -51z m-195 -54 c0
-8 -4 -15 -9 -15 -13 0 -22 16 -14 24 11 11 23 6 23 -9z m-49 -18 c-1 -12 -15
-9 -19 4 -3 6 1 10 8 8 6 -3 11 -8 11 -12z m64 -35 c0 -18 -20 -15 -23 4 -3
10 1 15 10 12 7 -3 13 -10 13 -16z m154 14 c-12 -10 -79 -16 -79 -6 0 5 19 10
42 10 23 0 39 -2 37 -4z m71 -54 c-14 -24 -24 -28 -80 -33 -67 -7 -83 0 -77
31 3 18 147 52 162 38 6 -6 4 -18 -5 -36z m-264 -3 c3 -6 15 -8 26 -6 14 4 18
1 16 -11 -7 -34 -68 -21 -68 14 0 17 16 18 26 3z"/>
<path d="M3317 2923 c-18 -17 -1 -23 68 -23 60 0 75 3 75 15 0 12 -14 15 -68
15 -38 0 -72 -3 -75 -7z"/>
<path d="M2496 2498 c-3 -24 -8 -67 -12 -95 l-7 -53 113 0 112 0 -7 -77 c-4
-43 -9 -81 -12 -85 -2 -5 -35 -8 -74 -8 l-69 0 0 45 c0 44 0 45 -34 45 -37 0
-46 -15 -46 -77 l0 -33 149 0 148 0 6 68 c4 37 7 84 7 105 l0 37 -105 0 -105
0 0 38 c0 20 3 54 6 75 l7 37 69 0 70 0 -4 -40 -4 -40 38 0 c37 0 38 1 38 34
0 19 3 41 6 50 5 14 -11 16 -139 16 l-145 0 -6 -42z"/>
<path d="M2890 2532 c0 -12 -39 -309 -45 -344 -4 -27 -3 -28 34 -28 l39 0 7
63 c13 129 9 128 76 27 l59 -90 46 0 46 0 -35 48 c-19 26 -50 69 -70 97 l-35
49 85 93 85 93 -40 0 c-38 0 -46 -6 -122 -87 -72 -78 -81 -84 -76 -58 3 17 8
56 12 88 l6 57 -36 0 c-20 0 -36 -4 -36 -8z"/>
<path d="M2830 1980 c0 -5 -5 -9 -11 -7 -6 1 -14 -4 -16 -11 -3 -8 1 -10 11
-6 10 4 16 1 16 -9 0 -8 -11 -17 -25 -20 -20 -3 -25 0 -24 12 3 38 0 44 -16
31 -12 -10 -13 -15 -4 -20 8 -6 8 -13 0 -28 -14 -26 -14 -35 -1 -27 6 3 10 -2
11 -12 1 -12 3 -10 8 7 4 16 15 26 31 28 l25 4 -25 -28 c-21 -25 -22 -26 -2
-10 22 19 22 19 23 -5 l1 -24 7 25 c7 24 7 24 19 5 6 -11 12 -15 12 -9 0 6 -7
18 -16 25 -14 12 -14 14 3 20 16 7 16 8 1 8 -18 1 -25 27 -9 33 5 2 3 9 -5 16
-8 7 -14 8 -14 2z"/>
<path d="M2960 1983 c0 -6 -15 -14 -32 -16 l-33 -4 36 -1 c35 -2 38 -5 55 -53
10 -28 20 -46 22 -41 2 6 -4 27 -12 47 -19 46 -19 45 -1 45 9 0 12 6 8 16 -5
13 -7 13 -14 2 -7 -11 -11 -10 -19 2 -6 9 -10 10 -10 3z"/>
<path d="M3071 1968 c-17 -11 -31 -21 -31 -21 0 -1 21 -3 48 -3 42 -2 43 -1
12 5 -32 6 -33 7 -12 15 15 5 31 2 47 -8 14 -9 25 -13 25 -9 0 5 -13 15 -29
24 -27 16 -30 15 -60 -3z"/>
<path d="M3199 1969 c-11 -7 -10 -9 4 -9 17 0 17 -2 3 -22 -18 -25 -21 -42 -6
-33 6 3 10 -4 10 -16 0 -12 3 -19 7 -16 3 4 6 21 5 39 0 18 4 38 9 44 12 15
-12 26 -32 13z"/>
<path d="M3261 1968 c0 -9 -7 -19 -13 -21 -10 -4 -10 -6 0 -6 7 -1 12 -15 12
-36 0 -19 4 -35 9 -35 4 0 6 12 3 27 -3 18 1 30 13 40 16 11 16 13 3 13 -9 0
-19 8 -21 18 -4 15 -5 15 -6 0z"/>
<path d="M3498 1969 c-22 -13 -24 -62 -2 -83 21 -21 47 -20 67 2 45 49 -8 115
-65 81z m62 -13 c28 -35 -11 -93 -47 -70 -36 22 -23 84 17 84 10 0 23 -7 30
-14z"/>
<path d="M3601 1923 c1 -32 4 -46 6 -31 3 20 11 28 31 31 l27 4 -27 2 c-21 1
-28 6 -28 20 0 14 8 21 28 24 25 4 25 4 -5 6 l-33 1 1 -57z"/>
<path d="M3681 1923 c1 -32 4 -46 6 -31 3 20 11 28 31 31 l27 4 -27 2 c-21 1
-28 6 -28 20 0 15 8 21 33 24 31 4 31 4 -5 5 l-38 2 1 -57z"/>
<path d="M3773 1925 c0 -33 2 -45 4 -27 2 18 2 45 0 60 -2 15 -4 0 -4 -33z"/>
<path d="M3826 1964 c-45 -45 12 -119 64 -84 11 8 8 9 -13 4 -33 -8 -57 10
-57 41 0 29 24 49 50 42 11 -3 18 -1 14 4 -8 14 -41 11 -58 -7z"/>
<path d="M3920 1925 l0 -55 33 1 c30 2 30 2 5 6 -19 3 -28 10 -28 23 0 13 9
20 28 23 l27 4 -27 2 c-21 1 -28 6 -28 20 0 14 8 21 28 24 25 4 25 4 -5 6
l-33 1 0 -55z"/>
<path d="M4049 1964 c-12 -15 -11 -18 4 -28 42 -25 50 -33 42 -45 -4 -8 -17
-10 -32 -6 -16 4 -22 2 -18 -5 9 -15 41 -12 56 6 12 14 10 19 -14 38 -32 26
-36 51 -7 43 11 -3 18 -1 14 4 -8 14 -30 11 -45 -7z"/>
<path d="M4133 1925 c0 -33 2 -47 4 -31 l5 28 31 -28 32 -29 -27 30 -28 29 28
31 27 30 -32 -29 -31 -28 -5 28 c-2 16 -4 2 -4 -31z"/>
<path d="M2918 1933 c19 -7 15 -53 -5 -53 -9 0 -14 -3 -11 -6 3 -3 21 -1 39 5
19 5 26 10 17 10 -21 1 -25 37 -5 44 6 3 -1 5 -18 5 -16 0 -24 -2 -17 -5z"/>
<path d="M3070 1911 l24 -7 -23 -16 c-22 -16 -22 -16 28 -19 54 -4 56 -3 41
21 -6 10 -10 11 -10 3 0 -7 -9 -13 -21 -13 -33 0 -16 24 22 31 26 5 20 6 -26
7 -39 0 -51 -2 -35 -7z"/>
</g>
</svg>
